<svg xmlns="http://www.w3.org/2000/svg" viewBox="0 0 32 32">
  <rect width="32" height="32" rx="7" fill="#0f0f17"/>
  <g transform="translate(7 7) scale(1)">
    <path d="M17.733,13.935l-.517-.509c.379-.587.606-1.282.623-2.029-.067-1.887-1.507-3.446-3.396-3.676-.069-2.089-1.449-3.829-3.33-4.47-.137-.618-.337-1.206-.602-1.224.004,0,.007-.002.011-.002.01,0,.02.003.03.005-.057-.022-.128-.041-.221-.046-.301-.017-.393-.006-.393-.006l-1.45.002c-.267,0-.483.215-.483.48l.002.69c-1.577.404-2.895,1.546-3.481,3.113C2.24,6.539.498,8.43.425,10.715c.042,1.092.457,2.082,1.117,2.856-.003.003-.006.006-.009.009-.26-.307-.483-.645-.658-1.012-.434.708-.914,1.617-.695,1.865-.003-.002-.006-.004-.009-.006-.007-.008-.012-.016-.018-.025.024.056.061.119.124.188.201.223.273.28.273.28l1.026,1.016c.189.187.495.187.683,0l1.03-1.029c.575.246,1.207.383,1.869.383.057,0,.114,0,.171-.003h1.722v-6.03h4.028v6.03h2.618c.035.005.071.007.106.007s.071-.002.106-.007c.601-.004,1.171-.142,1.681-.384.004.005.009.01.013.015-.309.148-.639.259-.986.324.794.547,1.487.946,1.651.808-.003.003-.004.007-.007.009-.008.007-.017.012-.025.018.056-.024.12-.061.189-.123.225-.2.282-.271.282-.271l1.024-1.018c.188-.187.188-.491,0-.678Z" fill="#0078d4"/>
  </g>
</svg>
